<svg xmlns="http://www.w3.org/2000/svg" viewBox="0 0 100 35" width="100%" height="100%">
  <path d="M3,2 L17,2 C17,10 13,18 10,22 C7,18 3,10 3,2 Z" fill="#FFEB3B" />
  <path d="M9,6 C9,6 9.5,5.5 10,5.5 C10.5,5.5 10.8,6 10.8,6.5 C10.8,7 10,8 10,8.5 C10,9 10.5,10 10.5,10.5 C10.5,11 9.5,12 9,12.5 C8.5,12 8,11.5 8,10.5 C8,9.5 9,9 9,8.5 C9,8 8.5,7.5 8.5,7 C8.5,6.5 9,6 9,6 Z" fill="#000000" />
  <rect x="5" y="2" width="3.3" height="1" fill="#4CAF50" />
  <rect x="8.3" y="2" width="3.3" height="1" fill="#FFFFFF" />
  <rect x="11.6" y="2" width="3.4" height="1" fill="#F44336" />
  <text x="25" y="22" font-family="'Times New Roman', serif" font-weight="bold" font-style="italic" font-size="14" fill="#ffffff" letter-spacing="0.5">Ferrari</text>
</svg>
