<svg xmlns="http://www.w3.org/2000/svg" viewBox="0 0 100 35" width="100%" height="100%">
  <path d="M12,2 C6.48,2 2,6.48 2,12 C2,17.52 6.48,22 12,22 C14.5,22 16.7,21.1 18.4,19.6 L15.6,16.8 C14.6,17.6 13.4,18 12,18 C8.69,18 6,15.31 6,12 C6,8.69 8.69,6 12,6 C13.4,6 14.6,6.4 15.6,7.2 L18.4,4.4 C16.7,2.9 14.5,2 12,2 Z" fill="#76B900" />
  <path d="M12,8 C9.79,8 8,9.79 8,12 C8,14.21 9.79,16 12,16 C12.9,16 13.7,15.7 14.4,15.2 L11.6,12.4 C11.8,12.2 11.9,12.1 12,12 C12.2,12.1 12.3,12.2 12.4,12.4 L15.2,9.6 C14.4,8.6 13.3,8 12,8 Z" fill="#76B900" opacity="0.8" />
  <text x="26" y="22" font-family="'Space Grotesk', sans-serif" font-weight="bold" font-size="15" fill="#ffffff" letter-spacing="1">NVIDIA</text>
</svg>